PathFileType	4	(X/Y/Z)	41_2_73_p0_0-472_filt_butterworth.trc
DataRate	CameraRate	NumFrames	NumMarkers	Units	OrigDataRate	OrigDataStartFrame	OrigNumFrames
56.0	56.0	6	27	m	56.0	354	472
Frame#	Time	RHip			RKnee			RAnkle			RBigToe			RSmallToe			RHeel			LHip			LKnee			LAnkle			LBigToe			LSmallToe			LHeel			Neck			Head			Nose			RShoulder			RElbow			RWrist			RThumb			RIndex			RPinky			LShoulder			LElbow			LWrist			LThumb			LIndex			LPinky			
		X1	Y1	Z1	X2	Y2	Z2	X3	Y3	Z3	X4	Y4	Z4	X5	Y5	Z5	X6	Y6	Z6	X7	Y7	Z7	X8	Y8	Z8	X9	Y9	Z9	X10	Y10	Z10	X11	Y11	Z11	X12	Y12	Z12	X13	Y13	Z13	X14	Y14	Z14	X15	Y15	Z15	X16	Y16	Z16	X17	Y17	Z17	X18	Y18	Z18	X19	Y19	Z19	X20	Y20	Z20	X21	Y21	Z21	X22	Y22	Z22	X23	Y23	Z23	X24	Y24	Z24	X25	Y25	Z25	X26	Y26	Z26	X27	Y27	Z27	
354	6.321428571428571	0.3948505193614706	0.500604973222095	-0.05459861445451088	0.39878733013100964	0.625152115422326	0.3599274027336683	0.37177205052968676	0.7011160228188836	0.7251721197501513	0.3686870473744357	0.5316743846350991	0.7489853414115364	0.42889918473708744	0.534978955660212	0.7378878396610082	0.34583405637136283	0.7709229936288859	0.7865470006724671	0.20524200223010003	0.543102185372839	-0.04905594282296446	0.18576189915887203	0.6244235726805689	0.36851689543653104	0.18017148072542508	0.6975971825237696	0.7411990076262478	0.1864040233738653	0.5001843436477937	0.7290805950674593	0.139377436546956	0.5545342259299108	0.7418123126082904	0.19928408418242305	0.7421051958440097	0.7883362937416662	0.2938716178573567	0.5184762744791327	-0.5531527983013077	0.31256907937781636	0.4382059802868972	-0.7909913781959617	0.30462657646805746	0.3925379189647214	-0.6692519445408107	0.4483371567657372	0.5379227306256501	-0.45422795092039314	0.5597683521350856	0.42934006123677637	-0.2800182736090261	0.6406623616187173	0.35838692392314386	-0.4186224280825141	0.6641319124106289	0.2821148614516702	-0.5321968544717898	0.6777826161839421	0.2700363271268225	-0.5433313511244542	0.6871647910278433	0.26838595073526206	-0.49925241491011596	0.15743866966467127	0.5413971733985872	-0.47593495299298105	0.05054230487622987	0.46137292743714386	-0.2940745252548716	-0.053531433908386564	0.3654391084729426	-0.37967779728205503	-0.1130880354817933	0.2935098068484883	-0.4596282880797404	-0.12957795836107647	0.28520035293538304	-0.46174822801922233	-0.13691865395389918	0.28884262529678456	-0.42029969001227135
355	6.339285714285714	0.39473188099487266	0.5003462973999044	-0.05456114769190932	0.39893573945204774	0.625108199691572	0.359885276264073	0.3720069213776489	0.6996482536077763	0.7253823260798682	0.3686932190469792	0.5317087791683767	0.7489865611973641	0.4288326651961554	0.5353936666524454	0.7379515203036955	0.34580417999710467	0.7708609018526166	0.7860713816777318	0.20513195883262422	0.543241465842883	-0.05048587069810951	0.18611412593172078	0.6244047091585778	0.3680950252929957	0.18016694963827218	0.697574733281458	0.7411838463386307	0.1863951599758833	0.5001436997906072	0.7291105077469099	0.1393574489249444	0.5544188049048351	0.7417273589034891	0.19846759352358992	0.7427516842034171	0.7884258832435672	0.2938307776078146	0.5182607024675876	-0.5555393632048066	0.30511817770500577	0.4440073740543193	-0.7901240462915502	0.3015213441675173	0.3927628090574005	-0.6703642659878861	0.4438093674627763	0.5314252378492368	-0.46009438410279985	0.560908296123169	0.42748317368542166	-0.29013563116165775	0.6367404751456395	0.3546433230973556	-0.43409458656558964	0.6480809255664394	0.2943791130843852	-0.5441190536633067	0.6653616983251341	0.2701438313272193	-0.5581815051491711	0.6822512741757223	0.26305256209418076	-0.5220122115085155	0.15573582686838044	0.5376135724617677	-0.4771969259453658	0.04646099038713584	0.4562592014147807	-0.29488170930817775	-0.05022448264254978	0.3660447914182709	-0.38913599845579355	-0.09665619273445772	0.3091150255114147	-0.47741543671627906	-0.11699687881077098	0.28449943823133167	-0.4808117324188424	-0.12363600948139067	0.2838121825388689	-0.4398447306555694
356	6.357142857142857	0.3943832835881782	0.4998900274996182	-0.05538609226944612	0.3989954809789999	0.6250978663649056	0.35982782080999454	0.37274833837368543	0.6951522372595672	0.7247455849897946	0.36871002337491865	0.5317519031340302	0.7489644920666634	0.42892657724811506	0.5359710042181174	0.7380249333136678	0.3457296341666184	0.7708835108095787	0.7860454201584659	0.20506506403214425	0.5434567598873401	-0.05154350645538322	0.18638785141376632	0.6243986479587793	0.366896287850818	0.18016664774882288	0.6975011139060993	0.7411794782896333	0.18636833923661025	0.5001016932682891	0.7291319840801264	0.13931792344689822	0.5543927165880689	0.7416908340165185	0.19804118106172933	0.7439139403755578	0.7888157496275452	0.2939457962717757	0.5180672489848132	-0.5586045576180677	0.2966856104232325	0.45244109765523877	-0.7888259945918497	0.2993145909868505	0.3931491277715888	-0.6725146983560395	0.43925665256837304	0.5282690255001106	-0.4657802451769864	0.5615835386713766	0.42594380015111	-0.29925234133596385	0.6307972392669623	0.35043886187005074	-0.4448492210245276	0.6246618773352215	0.29807210372216475	-0.551794572064879	0.6493376931084519	0.27198167117693933	-0.5674377343647082	0.67369443878012	0.2586721708491099	-0.5401431481135577	0.15378408247142764	0.5324207928853828	-0.4774127705746131	0.042682020397300555	0.45654216179481566	-0.2927001521853532	-0.04707768959303686	0.3648954317647982	-0.39699148895063935	-0.07679405231842593	0.32974176326322	-0.4867986786717508	-0.10657863812529386	0.29326099755289037	-0.49189487100845664	-0.11518206333431602	0.28175609239204547	-0.457113293367452
357	6.375	0.39406835300976906	0.5003335455294806	-0.05706134887065788	0.3989914378558703	0.625134881104519	0.35985438130129993	0.3737958897930887	0.6889699836433004	0.7228874741459161	0.368730938003834	0.5317917949045363	0.748907659030317	0.429067248939951	0.5362666750527411	0.7380718007768361	0.34558514110240507	0.7709397952759091	0.786145347242184	0.20503733766836643	0.5436198335783244	-0.05191669636419286	0.18648228489167462	0.6244279786642128	0.3646028045696039	0.18015428801576364	0.6975087425659072	0.7412058694116074	0.18632656138168116	0.5000731350380765	0.7291559885374487	0.13925079447544972	0.5544694085155232	0.7417373787230362	0.1985022881508559	0.7448326550089188	0.7892960150518551	0.2936557003717562	0.5179479648539198	-0.5617603092989037	0.28826737576537903	0.4619222199213313	-0.7871931001096959	0.297025088237481	0.3933619064095763	-0.6747064094308444	0.4364256477943184	0.5283859438556513	-0.4708678503838458	0.5614787148249367	0.42511790203714245	-0.3061794969018879	0.6216264743231601	0.34051588615008815	-0.45062231677726955	0.5983225230013983	0.2955116033343477	-0.5563801083047192	0.6293985586799109	0.27165400176021376	-0.5715782936846292	0.6588589881609803	0.2485421488459229	-0.5490145223970649	0.15208409621560542	0.5286874893718168	-0.4768190502930903	0.03877342898569302	0.46239236330111666	-0.2892564909649016	-0.04402221765407118	0.36063368029041865	-0.4025038092659008	-0.056569004116971265	0.33907371064133024	-0.49143285040381857	-0.09542536085217329	0.31084600092179415	-0.4959695094231978	-0.11110115659053701	0.28180393633649753	-0.4702980749068271
358	6.392857142857143	0.3942729315685867	0.50285462422472	-0.05836849284762177	0.3989526245846875	0.6251558367099765	0.3599621205001823	0.3746138962763873	0.6843778913765473	0.7205063594773713	0.3687388967881886	0.5317703661745937	0.7488820434436978	0.4291493966513833	0.5359735613513897	0.7383824002098351	0.3455236126111766	0.7710049295350554	0.7861953232974118	0.20503337093071727	0.5436774754049549	-0.051879317339809286	0.18643946654930568	0.6245608210896261	0.36229700198665893	0.18012927650187602	0.697584446373228	0.7412389795550323	0.1862849977850615	0.5000724217464066	0.7291956752838137	0.13917756895467615	0.5545655197667247	0.7418368498396821	0.19936534522207208	0.7452008497655053	0.7896042399768293	0.29243966142646244	0.5177573700158369	-0.563930519376453	0.28141232279022077	0.4712719267946063	-0.7861125469369711	0.29348875453380907	0.3912355433062572	-0.6759759062390698	0.43553049900523116	0.5292233451502001	-0.47547260185614526	0.5610600711221353	0.425028484909786	-0.31196483025021365	0.6097814070835565	0.3246523032358013	-0.4536741579315229	0.5743979330638358	0.29183186399585026	-0.5582127112990466	0.6076084569523809	0.2686924076981209	-0.571053700950217	0.6388955337078698	0.2317521046002279	-0.5502109257220732	0.15111004210860193	0.5273688758992532	-0.4763251200158651	0.03407323667152974	0.4743082359935237	-0.28594850689389945	-0.0402281258440044	0.35375342350427375	-0.40560197041114415	-0.040634445575897654	0.333429379626192	-0.49423451982760064	-0.08214601254902507	0.33368682457359583	-0.49568918028427567	-0.10779699769577203	0.2842214472385643	-0.4785895202009054
359	6.410714285714286	0.39531213578894875	0.5067712575430756	-0.058554653331889334	0.39892121104499817	0.6250308372100849	0.35995006116243367	0.3749877851966561	0.6827502196715326	0.7185967666770772	0.3687300567137397	0.5316492084685247	0.7489281475951761	0.4291526856757374	0.534958202476101	0.73921164224511	0.3460398099426917	0.7712289846124442	0.7862462062496018	0.205043357650546	0.5436711424296088	-0.051772864104290495	0.1863178538567671	0.6248646779752072	0.3616146639207903	0.18010268206353322	0.6976405977716427	0.7412328170475939	0.1862586178328075	0.5001029221429222	0.7292363967120301	0.13913411837873516	0.5545836120036409	0.7419025544232846	0.19994330594247914	0.7451997445033107	0.7896337547235863	0.2901237532201908	0.5174136553640784	-0.5647245186552823	0.2760148793396061	0.47944402956792476	-0.7859435590076758	0.2881064177347996	0.38411699834562674	-0.6763849540784095	0.4359020908280475	0.5302976132218237	-0.4801587775334135	0.5611067387990746	0.4257368313656905	-0.3182834982361853	0.5984623079025433	0.3104140842659283	-0.4553677111528227	0.5551167980395904	0.28665995843236824	-0.5577548996936519	0.5862656010138739	0.2662390325969386	-0.5671168575186925	0.6195676284195388	0.21480322370460003	-0.5481661432631548	0.15068602731938735	0.5274817940490787	-0.4766323850031549	0.02805040753669536	0.4923491164520208	-0.28233587196698806	-0.035034639681212246	0.3472594044053506	-0.40706079788707394	-0.03015681156380621	0.32371848196032366	-0.4961398447273023	-0.06750647767367261	0.3502219912191232	-0.4946426411428229	-0.10048106931491178	0.28578319151215453	-0.483723382220764
